<?xml version="1.0" standalone="no"?>
<svg
  width="1000"
  height="1000"
  viewBox="0 0 600 600"
  xmlns="http://www.w3.org/2000/svg"
>
  <g transform="translate(300,300)">
    <path d="M98.4,-120.3C141.2,-104.4,199,-93.9,215.1,-65C231.1,-36.2,205.4,11.1,184.7,55.4C163.9,99.6,148.1,140.8,118.1,156.4C88.2,172,44.1,162,-3.9,167.4C-51.9,172.8,-103.8,193.6,-137.9,179.3C-172,165.1,-188.2,115.8,-208.6,65C-228.9,14.2,-253.3,-38,-240.2,-77.9C-227.1,-117.9,-176.4,-145.5,-130.1,-160.3C-83.9,-175.1,-41.9,-177,-7.1,-167.3C27.8,-157.6,55.6,-136.3,98.4,-120.3Z" fill="#778968" />
  </g>
</svg>
