<?xml version="1.0" standalone="no"?>
<svg
  width="600"
  height="600"
  viewBox="0 0 600 600"
  xmlns="http://www.w3.org/2000/svg"
>
  <g transform="translate(300,300)">
    <path d="M161.9,-201.1C202.1,-159.2,221.7,-100.9,223.3,-46.1C224.9,8.6,208.6,59.8,181.6,103.1C154.5,146.4,116.8,181.7,68.6,207.4C20.5,233,-38,249,-87.5,233.8C-137,218.7,-177.6,172.3,-205.1,120.5C-232.5,68.7,-246.7,11.3,-229.9,-32.9C-213,-77.2,-165,-108.3,-121.5,-149.6C-78,-190.9,-39,-242.5,10.9,-255.5C60.9,-268.5,121.7,-243,161.9,-201.1Z" fill="#778968" />
  </g>
</svg>
  