<?xml version="1.0" encoding="UTF-8"?>
<svg viewBox="0 0 300.26001 210.53" xmlns="http://www.w3.org/2000/svg">
 <defs>
  <filter id="a">
   <feGaussianBlur stdDeviation="6.33105"/>
  </filter>
 </defs>
 <g transform="matrix(1.7621 0 0 1.7843 -50.62 -1106.5)">
  <path transform="matrix(.6967 0 0 .6967 -215.48 79.806)" d="m391.58 790.99h168.28a26.264 26.264 0 0 1 26.264 26.264v94.982a26.264 26.264 0 0 1 -26.264 26.264h-168.28a26.264 26.264 0 0 1 -26.264 -26.264v-94.982a26.264 26.264 0 0 1 26.264 -26.264" fill="#323232" filter="url(#a)"/>
  <path d="m51.161 624.24h117.24a18.298 18.298 0 0 1 18.298 18.298v66.175a18.298 18.298 0 0 1 -18.298 18.298h-117.24a18.298 18.298 0 0 1 -18.298 -18.298v-66.175a18.298 18.298 0 0 1 18.298 -18.298" fill="#eeeeec" stroke="#000" stroke-linejoin="round" stroke-width="8.2211"/>
 </g>
</svg>
